<?xml version="1.0" encoding="iso-8859-1"?>
<!-- Uploaded to: SVG Repo, www.svgrepo.com, Generator: SVG Repo Mixer Tools -->
<svg height="800px" width="800px" version="1.1" id="Layer_1" xmlns="http://www.w3.org/2000/svg" xmlns:xlink="http://www.w3.org/1999/xlink" 
	 viewBox="0 0 512.001 512.001" xml:space="preserve">
<path style="fill:#F6E04F;" d="M407.234,151.233c0,36.824-13.399,72.306-37.714,99.921c-14.583,16.552-24.043,36.886-27.447,58.593
	c-0.953,6.003-1.435,12.121-1.435,18.291v84.647H171.364v-84.647c0-6.149-0.492-12.268-1.467-18.291
	c-3.489-21.644-13.106-42.177-27.929-59.18c-24.064-27.605-37.274-62.982-37.201-99.638C104.925,68.859,171.804,1.163,253.853,0.01
	c0.723,0,1.425-0.01,2.148-0.01C339.391,0,407.234,67.843,407.234,151.233z"/>
<g>
	<path style="fill:#57565C;" d="M171.288,381.254v53.029c0,42.854,34.863,77.718,77.717,77.718h13.992
		c42.854,0,77.717-34.863,77.717-77.718v-53.029H171.288z"/>
	<path style="fill:#57565C;" d="M308.2,309.747v-81.793l21.202-56.578l-14.715-5.515v-0.001v0.001l-14.715-5.515l-23.201,61.913
		v87.488h-41.826v-87.488l-23.2-61.913l-14.715,5.515v-0.001v0.001l-14.715,5.515l21.202,56.578v81.793h-33.621
		c0.974,6.024,1.467,12.142,1.467,18.291v13.137h169.273v-13.137c0-6.17,0.482-12.288,1.435-18.291L308.2,309.747L308.2,309.747z"/>
</g>
<path style="fill:#F3D332;" d="M407.234,151.233c0,36.824-13.399,72.306-37.714,99.921c-14.583,16.552-24.043,36.886-27.447,58.593
	c-0.953,6.003-1.435,12.121-1.435,18.291v84.647h-84.699V0h0.063c3.436,0,6.841,0.115,10.214,0.335
	c1.75,0.115,3.499,0.262,5.228,0.45c0.629,0.062,1.268,0.126,1.896,0.199c1.268,0.147,2.525,0.304,3.782,0.482
	c0.618,0.094,1.226,0.178,1.844,0.272c0.639,0.094,1.278,0.199,1.907,0.304c1.163,0.199,2.315,0.398,3.457,0.618
	c0.712,0.126,1.414,0.272,2.116,0.419c0.608,0.126,1.226,0.251,1.833,0.388c0.618,0.126,1.226,0.272,1.833,0.409
	c0.608,0.147,1.215,0.293,1.823,0.44c0.398,0.094,0.786,0.189,1.184,0.293c0.545,0.136,1.09,0.272,1.634,0.419
	c0.89,0.241,1.781,0.482,2.661,0.733c0.513,0.147,1.016,0.293,1.529,0.45c1.31,0.388,2.609,0.786,3.897,1.215
	c0.545,0.168,1.079,0.346,1.613,0.534c1.173,0.398,2.336,0.807,3.489,1.226c5.207,1.917,10.288,4.107,15.211,6.558
	c0.545,0.272,1.1,0.545,1.634,0.828c1.488,0.765,2.975,1.55,4.431,2.368c0.513,0.283,1.027,0.566,1.53,0.859
	c0.513,0.283,1.016,0.576,1.519,0.88c0.461,0.262,0.911,0.534,1.372,0.817c2.849,1.697,5.636,3.509,8.36,5.395
	c0.503,0.346,0.995,0.691,1.488,1.048c0.251,0.178,0.503,0.356,0.765,0.555c0.377,0.262,0.765,0.545,1.142,0.828
	c2.305,1.687,4.547,3.436,6.747,5.259c0.471,0.377,0.932,0.765,1.393,1.163c0.471,0.388,0.922,0.786,1.383,1.184
	c4.568,3.96,8.905,8.192,12.98,12.676c0.409,0.44,0.817,0.89,1.215,1.351c0.398,0.45,0.807,0.901,1.194,1.362
	c1.708,1.97,3.363,3.981,4.976,6.045c0.629,0.807,1.257,1.624,1.865,2.441c0.23,0.304,0.461,0.618,0.691,0.922
	c0.199,0.272,0.398,0.545,0.587,0.817c0.293,0.398,0.576,0.796,0.87,1.205c0.356,0.492,0.702,0.985,1.048,1.488
	c1.383,2.001,2.724,4.023,4.012,6.087c0.314,0.513,0.639,1.026,0.953,1.549c0.576,0.943,1.131,1.896,1.687,2.85
	c0.293,0.503,0.587,1.006,0.869,1.519c0.126,0.22,0.241,0.43,0.367,0.65c0.241,0.44,0.482,0.88,0.723,1.32
	c0.587,1.069,1.152,2.148,1.708,3.237c0.283,0.534,0.555,1.09,0.828,1.634c0.817,1.645,1.613,3.31,2.378,4.997
	c0.251,0.545,0.492,1.1,0.733,1.655c0.126,0.283,0.241,0.555,0.356,0.828c0.22,0.492,0.43,0.985,0.629,1.477
	c0.157,0.356,0.304,0.723,0.45,1.09c0.241,0.566,0.461,1.131,0.691,1.708c0.492,1.257,0.974,2.514,1.446,3.792
	c0.377,1.037,0.744,2.095,1.1,3.153c0.199,0.587,0.398,1.173,0.587,1.76c0.995,3.049,1.886,6.139,2.692,9.261
	c0.126,0.503,0.251,0.995,0.367,1.498c0.471,1.907,0.901,3.824,1.289,5.751c0.115,0.534,0.22,1.058,0.314,1.592
	c0.126,0.618,0.241,1.236,0.346,1.854c0.22,1.236,0.43,2.483,0.618,3.729c0.084,0.534,0.157,1.058,0.241,1.582
	c0.136,0.995,0.272,1.98,0.388,2.975c0.073,0.608,0.147,1.205,0.21,1.812c0.073,0.639,0.136,1.278,0.199,1.916
	c0.063,0.576,0.115,1.152,0.157,1.739c0.052,0.608,0.105,1.226,0.147,1.833c0.052,0.618,0.084,1.226,0.126,1.844
	c0.031,0.513,0.063,1.016,0.084,1.53c0.031,0.65,0.063,1.289,0.084,1.938c0.031,0.639,0.052,1.289,0.063,1.938
	c0.021,0.555,0.031,1.121,0.031,1.687C407.223,149.756,407.234,150.5,407.234,151.233z"/>
<g>
	<path style="fill:#3E3D43;" d="M340.711,381.257v53.03c0,0.817-0.01,1.634-0.042,2.441c-0.01,0.524-0.031,1.037-0.063,1.55
		c-0.094,2.011-0.283,4.012-0.534,5.982c-0.073,0.618-0.168,1.236-0.262,1.844c-0.094,0.629-0.199,1.257-0.304,1.874
		c-0.22,1.194-0.461,2.378-0.723,3.551c-0.126,0.566-0.262,1.121-0.409,1.687c-0.084,0.356-0.178,0.702-0.272,1.058
		c-0.105,0.419-0.22,0.828-0.346,1.236c-0.283,1.037-0.597,2.064-0.943,3.08c-0.147,0.471-0.314,0.943-0.471,1.404
		c-0.262,0.733-0.524,1.456-0.807,2.179c-0.168,0.419-0.335,0.849-0.513,1.278c-0.272,0.691-0.566,1.372-0.859,2.053
		c-0.251,0.555-0.492,1.1-0.754,1.634c-0.775,1.676-1.624,3.322-2.525,4.934c-0.597,1.069-1.215,2.116-1.854,3.153
		c-0.325,0.513-0.65,1.027-0.985,1.53c-0.325,0.492-0.65,0.974-0.974,1.456c-0.021,0.031-0.052,0.073-0.073,0.105
		c-0.65,0.932-1.31,1.854-1.99,2.755c-0.126,0.157-0.241,0.325-0.367,0.482c-0.283,0.367-0.576,0.733-0.859,1.1
		c-0.01,0.01-0.021,0.021-0.031,0.031c-0.367,0.471-0.754,0.932-1.131,1.383c-0.388,0.471-0.786,0.932-1.184,1.383
		c-0.398,0.462-0.807,0.911-1.215,1.362c0,0-0.01,0-0.01,0.01c-0.409,0.44-0.817,0.88-1.236,1.31
		c-0.419,0.44-0.849,0.87-1.278,1.299c-0.43,0.419-0.859,0.849-1.299,1.257c-1.739,1.666-3.562,3.227-5.448,4.714
		c-0.503,0.388-1.006,0.775-1.509,1.152c-0.974,0.733-1.97,1.446-2.975,2.116c-0.503,0.335-1.016,0.67-1.519,1.006
		c-1.54,0.995-3.111,1.928-4.714,2.797c-1.079,0.597-2.169,1.152-3.269,1.687c-1.1,0.555-2.21,1.058-3.342,1.54
		c-0.566,0.241-1.131,0.482-1.708,0.712c-1.142,0.461-2.294,0.901-3.468,1.299c-0.576,0.2-1.173,0.398-1.76,0.587
		s-1.184,0.367-1.781,0.545c-1.194,0.356-2.399,0.671-3.614,0.974c-0.608,0.147-1.215,0.283-1.833,0.419
		c-0.566,0.115-1.142,0.241-1.708,0.346c-0.073,0.021-0.147,0.031-0.22,0.042c-0.597,0.115-1.184,0.22-1.781,0.314
		c-0.576,0.105-1.152,0.189-1.739,0.272c-0.105,0.021-0.21,0.031-0.325,0.042c-0.566,0.084-1.131,0.157-1.708,0.22
		c-0.639,0.073-1.268,0.136-1.907,0.199c-0.639,0.052-1.278,0.105-1.928,0.147c-0.639,0.042-1.278,0.073-1.928,0.105
		c-1.069,0.052-2.137,0.073-3.216,0.073h-7.061V381.256h84.773V381.257z"/>
	<path style="fill:#3E3D43;" d="M342.072,309.747c-0.953,6.003-1.435,12.121-1.435,18.291v13.137h-84.699v-31.428h20.837v-87.486
		l23.194-61.914l14.719,5.51l14.719,5.521l-21.204,56.571v81.797L342.072,309.747L342.072,309.747z"/>
</g>
</svg>