<?xml version="1.0" encoding="iso-8859-1"?>
<!-- Uploaded to: SVG Repo, www.svgrepo.com, Generator: SVG Repo Mixer Tools -->
<svg height="800px" width="800px" version="1.1" id="Layer_1" xmlns="http://www.w3.org/2000/svg" xmlns:xlink="http://www.w3.org/1999/xlink" 
	 viewBox="0 0 512 512" xml:space="preserve">
<path style="fill:#509ED9;" d="M173.037,14.348h111.648c53.152,0,93.086,48.521,82.861,100.68l-18.142,106.893H108.318
	L90.176,115.029C79.951,62.869,119.884,14.348,173.037,14.348z"/>
<path style="fill:#074761;" d="M88.861,222.74H368.86c13.152,0,23.813,10.661,23.813,23.813l0,0
	c0,13.152-10.661,23.813-23.813,23.813H88.861c-13.152,0-23.813-10.661-23.813-23.813l0,0C65.049,233.4,75.711,222.74,88.861,222.74
	z"/>
<path style="fill:#B5DDF8;" d="M92.55,270.364v2.768c0,75.282,61.028,136.31,136.31,136.31l0,0
	c75.282,0,136.31-61.028,136.31-136.31v-2.768H92.55L92.55,270.364z"/>
<path style="fill:#074761;" d="M228.861,409.443c-22.254,0-43.263-5.336-61.817-14.795l-10.88,103.003H301.56l-10.88-103.003
	C272.124,404.107,251.117,409.443,228.861,409.443z"/>
<path d="M446.95,135.358c-0.933,0-1.881-0.1-2.798-0.287c-0.917-0.187-1.824-0.459-2.683-0.818c-0.875-0.359-1.707-0.804-2.481-1.32
	c-0.791-0.517-1.522-1.119-2.182-1.779c-0.66-0.66-1.263-1.406-1.779-2.181c-0.515-0.775-0.961-1.621-1.32-2.482
	s-0.646-1.765-0.816-2.683c-0.188-0.918-0.287-1.865-0.287-2.798s0.099-1.88,0.287-2.812c0.171-0.904,0.458-1.808,0.816-2.683
	c0.359-0.861,0.805-1.693,1.32-2.468c0.517-0.789,1.119-1.521,1.779-2.195c0.66-0.66,1.392-1.248,2.182-1.779
	c0.773-0.517,1.606-0.961,2.481-1.32c0.861-0.359,1.765-0.631,2.683-0.818c1.851-0.373,3.745-0.373,5.61,0
	c0.904,0.187,1.808,0.459,2.683,0.818c0.861,0.359,1.693,0.804,2.468,1.32c0.789,0.531,1.521,1.119,2.181,1.779
	c0.66,0.674,1.264,1.406,1.794,2.195c0.517,0.775,0.947,1.607,1.306,2.468c0.373,0.875,0.646,1.779,0.832,2.683
	c0.187,0.933,0.273,1.88,0.273,2.812c0,0.933-0.088,1.88-0.273,2.798c-0.187,0.918-0.459,1.822-0.832,2.683
	c-0.359,0.861-0.789,1.707-1.306,2.482c-0.529,0.775-1.134,1.521-1.794,2.181c-0.66,0.66-1.392,1.263-2.181,1.779
	c-0.775,0.517-1.607,0.961-2.468,1.32c-0.875,0.359-1.779,0.631-2.683,0.818C448.83,135.257,447.881,135.358,446.95,135.358z"/>
<path d="M403.906,135.353c7.923,0,14.348-6.424,14.348-14.348s-6.425-14.348-14.348-14.348h-20.744
	c2.06-25.433-5.767-50.676-22.203-70.646C342.126,13.125,314.324,0,284.685,0h-111.65c-29.638,0-57.44,13.125-76.272,36.01
	C77.967,58.847,70.428,88.576,76.06,117.603l15.409,90.788h-2.606c-21.042,0-38.161,17.119-38.161,38.161
	c0,17.469,11.803,32.224,27.85,36.733c3.389,50.669,31.935,94.555,73.23,119.246l-9.89,93.612
	c-0.428,4.045,0.881,8.082,3.603,11.106c2.722,3.023,6.599,4.751,10.667,4.751H301.56c4.068,0,7.945-1.726,10.667-4.751
	c2.722-3.025,4.03-7.059,3.603-11.106l-9.889-93.614c41.295-24.691,69.841-68.577,73.23-119.244
	c16.047-4.51,27.852-19.264,27.852-36.735c0-21.042-17.119-38.161-38.161-38.161h-2.606l12.394-73.036L403.906,135.353
	L403.906,135.353z M278.45,415.454l7.166,67.849H172.107l7.167-67.848c8.6,3.007,17.435,5.178,26.451,6.56
	c0.308,0.047,0.617,0.09,0.927,0.135c1.742,0.255,3.491,0.485,5.246,0.68c0.911,0.103,1.825,0.198,2.742,0.284
	c0.753,0.07,1.505,0.142,2.261,0.201c1.643,0.129,3.293,0.23,4.949,0.306c0.474,0.022,0.948,0.037,1.423,0.055
	c1.855,0.067,3.716,0.115,5.587,0.115c1.872,0,3.733-0.046,5.589-0.115c0.474-0.017,0.948-0.033,1.422-0.055
	c1.659-0.076,3.313-0.176,4.957-0.307c0.748-0.059,1.492-0.131,2.237-0.199c0.931-0.088,1.86-0.185,2.786-0.29
	c1.726-0.192,3.445-0.418,5.158-0.669c0.336-0.05,0.672-0.096,1.006-0.148C261.026,420.629,269.854,418.46,278.45,415.454z
	 M235.069,394.931c-0.251,0.013-0.504,0.022-0.755,0.033c-1.809,0.08-3.626,0.131-5.454,0.131c-1.828,0-3.645-0.05-5.454-0.131
	c-0.253-0.011-0.504-0.02-0.755-0.033c-60.519-3.051-109.552-50.41-115.208-110.219h242.833
	C344.621,344.521,295.588,391.881,235.069,394.931z M378.324,246.552c0,5.219-4.246,9.464-9.464,9.464h-3.689H92.55h-3.688
	c-5.219,0-9.464-4.246-9.464-9.464s4.246-9.464,9.464-9.464h279.999C374.078,237.087,378.324,241.332,378.324,246.552z
	 M118.92,54.246c13.363-16.237,33.086-25.549,54.117-25.549h111.65c21.029,0,40.754,9.312,54.118,25.55
	c12.153,14.767,17.647,33.597,15.504,52.409H203.039c-7.923,0-14.348,6.424-14.348,14.348s6.425,14.348,14.348,14.348h146.503
	l-12.256,72.22H120.438l-16.113-94.945c-0.022-0.119-0.043-0.24-0.066-0.359C100.212,91.632,105.556,70.484,118.92,54.246z"/>
<path d="M159.995,135.358c-0.933,0-1.88-0.1-2.812-0.287c-0.904-0.187-1.808-0.459-2.683-0.818c-0.861-0.359-1.693-0.804-2.468-1.32
	c-0.789-0.517-1.522-1.119-2.182-1.779c-0.66-0.66-1.263-1.392-1.794-2.181c-0.515-0.775-0.961-1.621-1.32-2.482
	c-0.359-0.861-0.63-1.765-0.816-2.683c-0.188-0.918-0.273-1.865-0.273-2.798s0.086-1.88,0.273-2.812
	c0.187-0.904,0.458-1.808,0.816-2.683c0.359-0.861,0.805-1.693,1.32-2.468c0.531-0.789,1.134-1.521,1.794-2.181
	c0.66-0.66,1.393-1.263,2.182-1.794c0.775-0.517,1.607-0.961,2.468-1.32c0.875-0.359,1.779-0.631,2.683-0.818
	c1.851-0.373,3.759-0.373,5.61,0c0.918,0.187,1.822,0.459,2.683,0.818c0.874,0.359,1.706,0.804,2.481,1.32
	c0.789,0.531,1.522,1.134,2.182,1.794c2.667,2.669,4.204,6.371,4.204,10.144c0,0.933-0.1,1.88-0.287,2.798
	c-0.187,0.918-0.459,1.822-0.818,2.683c-0.359,0.861-0.804,1.707-1.32,2.482c-0.515,0.789-1.118,1.521-1.778,2.181
	c-0.66,0.66-1.393,1.263-2.182,1.779c-0.775,0.517-1.607,0.961-2.481,1.32c-0.862,0.359-1.765,0.631-2.683,0.818
	C161.873,135.257,160.928,135.358,159.995,135.358z"/>
</svg>